<svg width="24" height="24" viewBox="0 0 24 24" fill="none" xmlns="http://www.w3.org/2000/svg">
<path d="M16.8536 7.14643C16.5607 6.85353 16.0858 6.85353 15.7929 7.14643L7.2929 15.6465C7 15.9394 7 16.4142 7.2929 16.7071C7.5858 17 8.0607 17 8.3536 16.7071L16.8536 8.20709C17.1465 7.91419 17.1465 7.43932 16.8536 7.14643Z" fill="#EB6464"/>
<path d="M7.8232 6.42676C7.409 6.42676 7.0732 6.76254 7.0732 7.17676V16.1768C7.0732 16.591 7.409 16.9268 7.8232 16.9268H16.8232C17.2375 16.9268 17.5732 16.591 17.5732 16.1768C17.5732 15.7625 17.2375 15.4268 16.8232 15.4268H8.5732V7.17676C8.5732 6.76254 8.2375 6.42676 7.8232 6.42676Z" fill="#EB6464"/>
</svg>
