<svg width="15" height="15" viewBox="0 0 15 15" fill="none" xmlns="http://www.w3.org/2000/svg">
<path d="M13.8144 3.13568L10.7499 0.125885C10.6677 0.0452042 10.5572 0 10.4419 0H2.6944C1.79031 0 1.05469 0.735512 1.05469 1.63971V13.3603C1.05469 14.2644 1.7902 15 2.6944 15H12.3062C13.2103 15 13.9459 14.2645 13.9459 13.3603V3.44925C13.9459 3.33126 13.8985 3.21831 13.8144 3.13568ZM10.8814 1.48705L12.4318 3.0098H11.0211C10.9441 3.0098 10.8814 2.94708 10.8814 2.87006V1.48705ZM12.3062 14.1211H2.6944C2.27497 14.1211 1.93359 13.7798 1.93359 13.3603V1.63971C1.93359 1.22017 2.27486 0.878906 2.6944 0.878906H10.0026V2.87006C10.0026 3.43174 10.4596 3.8887 11.0212 3.8887H13.067V13.3603C13.067 13.7798 12.7257 14.1211 12.3062 14.1211Z" fill="#FD7E50"/>
<path d="M10.5511 6.97266H4.3562C4.11347 6.97266 3.91675 7.16938 3.91675 7.41211C3.91675 7.65484 4.11347 7.85156 4.3562 7.85156H10.5511C10.7938 7.85156 10.9906 7.65484 10.9906 7.41211C10.9906 7.16938 10.7938 6.97266 10.5511 6.97266Z" fill="#FD7E50"/>
<path d="M4.3562 9.60938H9.40739C9.65012 9.60938 9.84685 9.41265 9.84685 9.16992C9.84685 8.92719 9.65012 8.73047 9.40739 8.73047H4.3562C4.11347 8.73047 3.91675 8.92719 3.91675 9.16992C3.91675 9.41265 4.11347 9.60938 4.3562 9.60938Z" fill="#FD7E50"/>
<path d="M10.0168 10.4883H4.3562C4.11347 10.4883 3.91675 10.685 3.91675 10.9277C3.91675 11.1705 4.11347 11.3672 4.3562 11.3672H10.0168C10.2594 11.3672 10.4562 11.1705 10.4562 10.9277C10.4562 10.685 10.2594 10.4883 10.0168 10.4883Z" fill="#FD7E50"/>
</svg>
