<svg version="1.2" xmlns="http://www.w3.org/2000/svg" viewBox="0 0 18 18" width="18" height="18">
	<title>arrow_icon10</title>
	<style>
		.s0 { fill: #4caf50 } 
	</style>
	<path class="s0" d="m10.5 10.5c0.2-0.1 0.4-0.1 0.6 0l2.2 2.3v-2c0-0.2 0.2-0.4 0.4-0.4 0.2 0 0.3 0.2 0.3 0.4v2.9q0 0.1 0 0.1 0 0.2-0.2 0.2 0 0-0.1 0h-2.9c-0.2 0-0.4-0.1-0.4-0.3 0-0.2 0.2-0.4 0.4-0.4h2l-2.3-2.2c-0.1-0.2-0.1-0.4 0-0.6z"/>
	<path class="s0" d="m4.2 4q0 0 0.1 0h2.9c0.2 0 0.4 0.1 0.4 0.3 0 0.2-0.2 0.4-0.4 0.4h-2l2.3 2.2c0.1 0.2 0.1 0.4 0 0.6q-0.2 0.1-0.3 0.1-0.1 0-0.3-0.1l-2.2-2.3v2c0 0.2-0.2 0.4-0.4 0.4-0.2 0-0.3-0.2-0.3-0.4v-2.9q0-0.1 0-0.1 0-0.2 0.2-0.2z"/>
	<path class="s0" d="m3.6 1.8h10.8c1 0 1.8 0.8 1.8 1.8v10.8c0 1-0.8 1.8-1.8 1.8h-10.8c-1 0-1.8-0.8-1.8-1.8v-10.8c0-1 0.8-1.8 1.8-1.8zm-1.1 12.6c0 0.6 0.5 1.1 1.1 1.1h10.8c0.6 0 1.1-0.5 1.1-1.1v-10.8c0-0.6-0.5-1.1-1.1-1.1h-10.8c-0.6 0-1.1 0.5-1.1 1.1z"/>
</svg>