<svg width="20" height="20" viewBox="0 0 20 20" fill="none" xmlns="http://www.w3.org/2000/svg">
<g clip-path="url(#clip0_129_132)">
<path d="M17.0711 2.92898C13.1721 -0.970143 6.82801 -0.970143 2.92901 2.92898C-0.969989 6.82786 -0.969989 13.172 2.92901 17.0711C4.87851 19.0206 7.43926 19.9954 10 19.9954C12.5608 19.9954 15.1216 19.0206 17.0711 17.071C20.97 13.172 20.97 6.82786 17.0711 2.92898ZM16.1873 16.1872C12.7756 19.5989 7.22451 19.5989 3.81289 16.1872C0.401261 12.7755 0.401261 7.22436 3.81289 3.81273C7.22451 0.401108 12.7756 0.401108 16.1873 3.81273C19.5988 7.22436 19.5988 12.7755 16.1873 16.1872Z" fill="#95D0D4"/>
<path d="M13.8809 6.11918C13.6368 5.87505 13.2411 5.87505 12.997 6.11918L10 9.1163L7.00301 6.11918C6.75888 5.87505 6.36313 5.87493 6.11913 6.11918C5.87501 6.36318 5.87501 6.75893 6.11913 7.00293L9.11613 10.0001L6.11901 12.9972C5.87488 13.2412 5.87488 13.6369 6.11901 13.8809C6.24113 14.0031 6.40101 14.0641 6.56101 14.0641C6.72101 14.0641 6.88088 14.0031 7.00301 13.8809L10 10.8839L12.997 13.8809C13.1191 14.0031 13.279 14.0641 13.4389 14.0641C13.5989 14.0641 13.7589 14.0031 13.8809 13.8809C14.125 13.6369 14.125 13.2412 13.8809 12.9972L10.8839 10.0001L13.881 7.00293C14.125 6.75905 14.125 6.3633 13.8809 6.11918Z" fill="#95D0D4"/>
</g>
<defs>
<clipPath id="clip0_129_132">
<rect width="20" height="20" fill="white"/>
</clipPath>
</defs>
</svg>
