<svg width="20" height="20" viewBox="0 0 20 20" fill="none" xmlns="http://www.w3.org/2000/svg">
<g clip-path="url(#clip0_127_25)">
<path d="M10 20C4.48609 20 0 15.5139 0 10C0 4.48609 4.48609 0 10 0C15.5139 0 20 4.48609 20 10C20 15.5139 15.5139 20 10 20ZM10 1.25C5.17516 1.25 1.25 5.17516 1.25 10C1.25 14.8248 5.17516 18.75 10 18.75C14.8248 18.75 18.75 14.8248 18.75 10C18.75 5.17516 14.8248 1.25 10 1.25ZM8.56687 13.5669L14.8169 7.31687C15.0611 7.07266 15.0611 6.67719 14.8169 6.43313C14.5727 6.18906 14.1772 6.18891 13.9331 6.43313L8.125 12.2413L6.06687 10.1831C5.82266 9.93891 5.42719 9.93891 5.18313 10.1831C4.93906 10.4273 4.93891 10.8228 5.18313 11.0669L7.68313 13.5669C7.80516 13.6889 7.96516 13.75 8.125 13.75C8.28484 13.75 8.44484 13.6889 8.56687 13.5669Z" fill="#6B6B6B"/>
</g>
<defs>
<clipPath id="clip0_127_25">
<rect width="20" height="20" fill="white"/>
</clipPath>
</defs>
</svg>
