<svg width="16" height="16" viewBox="0 0 16 16" fill="none" xmlns="http://www.w3.org/2000/svg">
<g clip-path="url(#clip0_127_77)">
<path d="M15.9914 0.580729C15.984 0.523275 15.9714 0.467936 15.9504 0.416016C15.9497 0.414714 15.9497 0.412923 15.9494 0.411296C15.9494 0.41097 15.9491 0.410645 15.9487 0.410319C15.9256 0.355632 15.894 0.30599 15.8584 0.259928C15.8496 0.249023 15.841 0.238281 15.8317 0.228027C15.7936 0.185059 15.7523 0.145345 15.7043 0.112956C15.703 0.111979 15.7013 0.111654 15.7 0.110677C15.6536 0.0800781 15.6024 0.0569662 15.5487 0.038737C15.5353 0.0340169 15.5223 0.0299479 15.5086 0.0263672C15.4523 0.0110677 15.3944 0 15.3333 0H10.6667C10.2987 0 10 0.298665 10 0.666667C10 1.03467 10.2987 1.33333 10.6667 1.33333H13.7236L9.74463 5.31234C8.68359 4.4637 7.37728 4 6 4C2.69173 4 0 6.69173 0 10C0 13.3083 2.69173 16 6 16C9.30827 16 12 13.3083 12 10C12 8.62337 11.5366 7.31738 10.6873 6.25537L14.6667 2.27604V5.33333C14.6667 5.70133 14.9653 6 15.3333 6C15.7013 6 16 5.70133 16 5.33333V0.666667C16 0.652669 15.9967 0.639323 15.9959 0.625651C15.995 0.610352 15.9933 0.595703 15.9914 0.580729ZM6 14.6667C3.4266 14.6667 1.33333 12.5734 1.33333 10C1.33333 7.4266 3.4266 5.33333 6 5.33333C7.24593 5.33333 8.41895 5.81836 9.30094 6.69727C10.1816 7.58105 10.6667 8.75407 10.6667 10C10.6667 12.5734 8.57341 14.6667 6 14.6667Z" fill="#95D0D4"/>
</g>
<defs>
<clipPath id="clip0_127_77">
<rect width="16" height="16" fill="white"/>
</clipPath>
</defs>
</svg>
